<svg width="36" height="36" viewBox="0 0 36 36" fill="none" xmlns="http://www.w3.org/2000/svg">
<path d="M12 10.5V16.5L3 9L12 1.5V7.5H19.5C22.6826 7.5 25.7348 8.76428 27.9853 11.0147C30.2357 13.2652 31.5 16.3174 31.5 19.5C31.5 22.6826 30.2357 25.7348 27.9853 27.9853C25.7348 30.2357 22.6826 31.5 19.5 31.5H6V28.5H19.5C21.8869 28.5 24.1761 27.5518 25.864 25.864C27.5518 24.1761 28.5 21.8869 28.5 19.5C28.5 17.1131 27.5518 14.8239 25.864 13.136C24.1761 11.4482 21.8869 10.5 19.5 10.5H12Z" fill="#035397"/>
</svg>
