<svg width="29" height="39" viewBox="0 0 29 39" fill="none" xmlns="http://www.w3.org/2000/svg">
<path d="M23.2 11.7107C24.7383 11.7107 26.2135 12.3268 27.3012 13.4235C28.3889 14.5201 29 16.0075 29 17.5584V33.1523C29 34.7032 28.3889 36.1906 27.3012 37.2872C26.2135 38.3839 24.7383 39 23.2 39H5.8C4.26174 39 2.78649 38.3839 1.69878 37.2872C0.61107 36.1906 0 34.7032 0 33.1523V17.5584C0 16.0075 0.61107 14.5201 1.69878 13.4235C2.78649 12.3268 4.26174 11.7107 5.8 11.7107H21.2667V8.78687C21.2698 7.05992 20.6231 5.39605 19.4573 4.13089C18.2914 2.86573 16.693 2.09343 14.9845 1.96977C13.2761 1.84612 11.5847 2.38031 10.2515 3.4646C8.91832 4.54888 8.04261 6.10257 7.801 7.81225H5.8522C6.09567 5.58119 7.17817 3.52912 8.87689 2.0784C10.5756 0.627689 12.7613 -0.11128 14.984 0.0135971C17.2068 0.138474 19.2975 1.1177 20.8259 2.74971C22.3542 4.38173 23.2039 6.54235 23.2 8.78687V11.7107ZM5.8 13.66C4.7745 13.66 3.79099 14.0707 3.06585 14.8018C2.34071 15.5329 1.93333 16.5245 1.93333 17.5584V33.1523C1.93333 34.1862 2.34071 35.1778 3.06585 35.9089C3.79099 36.64 4.7745 37.0508 5.8 37.0508H23.2C24.2255 37.0508 25.209 36.64 25.9341 35.9089C26.6593 35.1778 27.0667 34.1862 27.0667 33.1523V17.5584C27.0667 16.5245 26.6593 15.5329 25.9341 14.8018C25.209 14.0707 24.2255 13.66 23.2 13.66H5.8ZM14.5 23.4061C13.7309 23.4061 12.9932 23.7142 12.4494 24.2625C11.9055 24.8108 11.6 25.5545 11.6 26.33C11.6 27.1054 11.9055 27.8491 12.4494 28.3974C12.9932 28.9458 13.7309 29.2538 14.5 29.2538C15.2691 29.2538 16.0068 28.9458 16.5506 28.3974C17.0945 27.8491 17.4 27.1054 17.4 26.33C17.4 25.5545 17.0945 24.8108 16.5506 24.2625C16.0068 23.7142 15.2691 23.4061 14.5 23.4061ZM14.5 21.4569C15.7819 21.4569 17.0113 21.9703 17.9177 22.8842C18.8241 23.7981 19.3333 25.0376 19.3333 26.33C19.3333 27.6224 18.8241 28.8619 17.9177 29.7758C17.0113 30.6896 15.7819 31.2031 14.5 31.2031C13.2181 31.2031 11.9887 30.6896 11.0823 29.7758C10.1759 28.8619 9.66667 27.6224 9.66667 26.33C9.66667 25.0376 10.1759 23.7981 11.0823 22.8842C11.9887 21.9703 13.2181 21.4569 14.5 21.4569Z" fill="#035397"/>
</svg>
