<svg width="40" height="40" viewBox="0 0 40 40" fill="none" xmlns="http://www.w3.org/2000/svg">
<path d="M34 0H6C4.4087 0 2.88258 0.632141 1.75736 1.75736C0.632141 2.88258 0 4.4087 0 6V34C0 35.5913 0.632141 37.1174 1.75736 38.2426C2.88258 39.3679 4.4087 40 6 40H34C34.329 39.9954 34.6569 39.962 34.98 39.9L35.58 39.76H35.72H35.82L36.56 39.48L36.82 39.34C37.02 39.22 37.24 39.12 37.44 38.98C37.7071 38.7835 37.9609 38.5697 38.2 38.34L38.34 38.16C38.5364 37.961 38.7169 37.747 38.88 37.52L39.06 37.26C39.1997 37.0373 39.3201 36.8032 39.42 36.56C39.4749 36.464 39.5217 36.3637 39.56 36.26C39.66 36.02 39.72 35.76 39.8 35.5V35.2C39.9134 34.8092 39.9805 34.4064 40 34V6C40 4.4087 39.3679 2.88258 38.2426 1.75736C37.1174 0.632141 35.5913 0 34 0ZM6 36C5.46957 36 4.96086 35.7893 4.58579 35.4142C4.21071 35.0391 4 34.5304 4 34V25.38L10.58 18.78C10.7659 18.5925 10.9871 18.4438 11.2308 18.3422C11.4746 18.2407 11.736 18.1884 12 18.1884C12.264 18.1884 12.5254 18.2407 12.7692 18.3422C13.0129 18.4438 13.2341 18.5925 13.42 18.78L30.62 36H6ZM36 34C35.9981 34.2466 35.9507 34.4907 35.86 34.72C35.8143 34.8175 35.7608 34.9111 35.7 35C35.6465 35.0847 35.5863 35.1649 35.52 35.24L24.82 24.54L26.58 22.78C26.7659 22.5925 26.9871 22.4438 27.2308 22.3422C27.4746 22.2407 27.736 22.1884 28 22.1884C28.264 22.1884 28.5254 22.2407 28.7692 22.3422C29.0129 22.4438 29.2341 22.5925 29.42 22.78L36 29.38V34ZM36 23.72L32.24 20C31.0954 18.914 29.5778 18.3086 28 18.3086C26.4222 18.3086 24.9046 18.914 23.76 20L22 21.76L16.24 16C15.0954 14.914 13.5778 14.3086 12 14.3086C10.4222 14.3086 8.90456 14.914 7.76 16L4 19.72V6C4 5.46957 4.21071 4.96086 4.58579 4.58579C4.96086 4.21071 5.46957 4 6 4H34C34.5304 4 35.0391 4.21071 35.4142 4.58579C35.7893 4.96086 36 5.46957 36 6V23.72ZM23 8C22.4067 8 21.8266 8.17595 21.3333 8.50559C20.8399 8.83524 20.4554 9.30377 20.2284 9.85195C20.0013 10.4001 19.9419 11.0033 20.0576 11.5853C20.1734 12.1672 20.4591 12.7018 20.8787 13.1213C21.2982 13.5409 21.8328 13.8266 22.4147 13.9424C22.9967 14.0581 23.5999 13.9987 24.1481 13.7716C24.6962 13.5446 25.1648 13.1601 25.4944 12.6667C25.8241 12.1734 26 11.5933 26 11C26 10.2044 25.6839 9.44129 25.1213 8.87868C24.5587 8.31607 23.7956 8 23 8Z" fill="black"/>
</svg>
