<svg width="1em" height="1em" viewBox="0 0 25 25" fill="none" xmlns="http://www.w3.org/2000/svg">
<path d="M15.5423 7.29134H13.459V11.458H9.29232V13.5413H13.459V17.708H15.5423V13.5413H19.709V11.458H15.5423V7.29134ZM14.5007 2.08301C8.75065 2.08301 4.08398 6.74967 4.08398 12.4997C4.08398 18.2497 8.75065 22.9163 14.5007 22.9163C20.2507 22.9163 24.9173 18.2497 24.9173 12.4997C24.9173 6.74967 20.2507 2.08301 14.5007 2.08301ZM14.5007 20.833C9.9069 20.833 6.16732 17.0934 6.16732 12.4997C6.16732 7.90593 9.9069 4.16634 14.5007 4.16634C19.0944 4.16634 22.834 7.90593 22.834 12.4997C22.834 17.0934 19.0944 20.833 14.5007 20.833Z" fill="#255FAB"/>
</svg>
