<svg width="26" height="29" viewBox="0 0 26 29" fill="none" xmlns="http://www.w3.org/2000/svg">
<path d="M4.33464 9.66663H21.668V25.375C21.668 25.6954 21.5538 26.0028 21.3507 26.2294C21.1475 26.456 20.872 26.5833 20.5846 26.5833H5.41797C5.13065 26.5833 4.8551 26.456 4.65194 26.2294C4.44877 26.0028 4.33464 25.6954 4.33464 25.375V9.66663ZM6.5013 12.0833V24.1666H19.5013V12.0833H6.5013ZM9.7513 14.5H11.918V21.75H9.7513V14.5ZM14.0846 14.5H16.2513V21.75H14.0846V14.5ZM7.58463 6.04163V3.62496C7.58463 3.30449 7.69877 2.99714 7.90194 2.77054C8.1051 2.54393 8.38065 2.41663 8.66797 2.41663H17.3346C17.622 2.41663 17.8975 2.54393 18.1007 2.77054C18.3038 2.99714 18.418 3.30449 18.418 3.62496V6.04163H23.8346V8.45829H2.16797V6.04163H7.58463ZM9.7513 4.83329V6.04163H16.2513V4.83329H9.7513Z" fill="#255FAB"/>
</svg>
