<svg width="48" height="48" viewBox="0 0 48 48" fill="none" xmlns="http://www.w3.org/2000/svg">
<path fill-rule="evenodd" clip-rule="evenodd" d="M7.07448 13.25H35.9257C36.8609 13.25 37.626 14.015 37.626 14.9503V15.133C37.626 16.0683 36.8609 16.8333 35.9257 16.8333H7.07448C6.13923 16.8333 5.37598 16.0683 5.37598 15.133V14.9503C5.37598 14.015 6.13923 13.25 7.07448 13.25ZM35.9257 22.2083H7.07448C6.13923 22.2083 5.37598 22.9734 5.37598 23.9086V24.0914C5.37598 25.0266 6.13923 25.7917 7.07448 25.7917H35.9257C36.8609 25.7917 37.626 25.0266 37.626 24.0914V23.9086C37.626 22.9734 36.8609 22.2083 35.9257 22.2083ZM35.9257 31.1667H7.07448C6.13923 31.1667 5.37598 31.9317 5.37598 32.867V33.0497C5.37598 33.985 6.13923 34.75 7.07448 34.75H35.9257C36.8609 34.75 37.626 33.985 37.626 33.0497V32.867C37.626 31.9317 36.8609 31.1667 35.9257 31.1667Z" fill="#035397"/>
</svg>
