<svg width="25" height="25" viewBox="0 0 25 25" fill="none" xmlns="http://www.w3.org/2000/svg">
<path d="M12.7941 1.52803L12.4406 1.17423L12.0869 1.52791L0.9516 12.6632C0.89973 12.7032 0.835352 12.7238 0.769609 12.7213C0.69903 12.7186 0.63208 12.6893 0.582138 12.6394C0.532194 12.5894 0.502936 12.5225 0.500209 12.4519C0.49767 12.3862 0.518325 12.3218 0.558296 12.2699L12.2467 0.581548C12.2468 0.581412 12.2469 0.581276 12.2471 0.58114C12.2996 0.529164 12.3705 0.5 12.4444 0.5C12.5183 0.5 12.5892 0.529164 12.6417 0.58114C12.6418 0.581276 12.6419 0.581412 12.6421 0.581548L24.233 12.1725L24.3135 12.2665C24.3594 12.3201 24.3834 12.3891 24.3807 12.4597C24.378 12.5303 24.3487 12.5972 24.2988 12.6472C24.2488 12.6971 24.1819 12.7264 24.1113 12.7291C24.0456 12.7316 23.9812 12.711 23.9294 12.6711L12.7941 1.52803Z" fill="white" stroke="white"/>
<path d="M20.2447 23.9141H20.7447V23.4141V13.5079L21.3056 14.0688V23.4141C21.3056 23.6955 21.1938 23.9653 20.9949 24.1643C20.7959 24.3632 20.5261 24.475 20.2447 24.475H15.2817V17.1707V16.6707H14.7817H10.0991H9.59909V17.1707V24.475H4.63606C4.3547 24.475 4.08487 24.3632 3.88592 24.1643C3.68697 23.9653 3.5752 23.6955 3.5752 23.4141V14.2561L4.13606 13.6952V23.4141V23.9141H4.63606H8.53823H9.03823V23.4141V16.1098H15.8426V23.4141V23.9141H16.3426H20.2447Z" fill="white" stroke="white"/>
</svg>
